<svg width="14" height="14" viewBox="0 0 14 14" fill="none" xmlns="http://www.w3.org/2000/svg">
<path d="M4.48 1H9.52C11.44 1 13 2.56 13 4.48V9.52C13 10.443 12.6334 11.3281 11.9807 11.9807C11.3281 12.6334 10.443 13 9.52 13H4.48C2.56 13 1 11.44 1 9.52V4.48C1 3.55705 1.36664 2.6719 2.01927 2.01927C2.6719 1.36664 3.55705 1 4.48 1V1ZM4.36 2.2C3.78713 2.2 3.23773 2.42757 2.83265 2.83265C2.42757 3.23773 2.2 3.78713 2.2 4.36V9.64C2.2 10.834 3.166 11.8 4.36 11.8H9.64C10.2129 11.8 10.7623 11.5724 11.1674 11.1674C11.5724 10.7623 11.8 10.2129 11.8 9.64V4.36C11.8 3.166 10.834 2.2 9.64 2.2H4.36ZM10.15 3.1C10.3489 3.1 10.5397 3.17902 10.6803 3.31967C10.821 3.46032 10.9 3.65109 10.9 3.85C10.9 4.04891 10.821 4.23968 10.6803 4.38033C10.5397 4.52098 10.3489 4.6 10.15 4.6C9.95109 4.6 9.76032 4.52098 9.61967 4.38033C9.47902 4.23968 9.4 4.04891 9.4 3.85C9.4 3.65109 9.47902 3.46032 9.61967 3.31967C9.76032 3.17902 9.95109 3.1 10.15 3.1ZM7 4C7.79565 4 8.55871 4.31607 9.12132 4.87868C9.68393 5.44129 10 6.20435 10 7C10 7.79565 9.68393 8.55871 9.12132 9.12132C8.55871 9.68393 7.79565 10 7 10C6.20435 10 5.44129 9.68393 4.87868 9.12132C4.31607 8.55871 4 7.79565 4 7C4 6.20435 4.31607 5.44129 4.87868 4.87868C5.44129 4.31607 6.20435 4 7 4V4ZM7 5.2C6.52261 5.2 6.06477 5.38964 5.72721 5.72721C5.38964 6.06477 5.2 6.52261 5.2 7C5.2 7.47739 5.38964 7.93523 5.72721 8.27279C6.06477 8.61036 6.52261 8.8 7 8.8C7.47739 8.8 7.93523 8.61036 8.27279 8.27279C8.61036 7.93523 8.8 7.47739 8.8 7C8.8 6.52261 8.61036 6.06477 8.27279 5.72721C7.93523 5.38964 7.47739 5.2 7 5.2Z" fill="white"/>
</svg>
