<svg width="148" height="146" viewBox="0 0 148 146" fill="none" xmlns="http://www.w3.org/2000/svg">
<g clip-path="url(#clip0)">
<g filter="url(#filter0_d)">
<rect x="10" width="36" height="36" fill="#91CD81"/>
<rect x="10" y="52" width="36" height="36" fill="#91CD81"/>
<rect x="10" y="104" width="36" height="36" fill="#91CD81"/>
<rect x="56" width="36" height="36" fill="#91CD81"/>
<rect x="56" y="52" width="36" height="36" fill="#91CD81"/>
<rect x="56" y="104" width="36" height="36" fill="#91CD81"/>
<rect x="102" width="36" height="36" fill="#91CD81"/>
<rect x="102" y="52" width="36" height="36" fill="#91CD81"/>
<rect x="102" y="104" width="36" height="36" fill="#91CD81"/>
<rect x="10" y="39" width="30" height="3" rx="1.5" fill="#91CD81"/>
<rect x="10" y="91" width="30" height="3" rx="1.5" fill="#91CD81"/>
<rect x="10" y="143" width="30" height="3" rx="1.5" fill="#91CD81"/>
<rect x="56" y="39" width="30" height="3" rx="1.5" fill="#91CD81"/>
<rect x="56" y="91" width="30" height="3" rx="1.5" fill="#91CD81"/>
<rect x="56" y="143" width="30" height="3" rx="1.5" fill="#91CD81"/>
<rect x="102" y="39" width="30" height="3" rx="1.5" fill="#91CD81"/>
<rect x="102" y="91" width="30" height="3" rx="1.5" fill="#91CD81"/>
<rect x="102" y="143" width="30" height="3" rx="1.5" fill="#91CD81"/>
</g>
</g>
<defs>
<filter id="filter0_d" x="0" y="-5" width="148" height="166" filterUnits="userSpaceOnUse" color-interpolation-filters="sRGB">
<feFlood flood-opacity="0" result="BackgroundImageFix"/>
<feColorMatrix in="SourceAlpha" type="matrix" values="0 0 0 0 0 0 0 0 0 0 0 0 0 0 0 0 0 0 127 0"/>
<feOffset dy="5"/>
<feGaussianBlur stdDeviation="5"/>
<feColorMatrix type="matrix" values="0 0 0 0 1 0 0 0 0 1 0 0 0 0 1 0 0 0 0.05 0"/>
<feBlend mode="normal" in2="BackgroundImageFix" result="effect1_dropShadow"/>
<feBlend mode="normal" in="SourceGraphic" in2="effect1_dropShadow" result="shape"/>
</filter>
<clipPath id="clip0">
<rect width="148" height="146" fill="white"/>
</clipPath>
</defs>
</svg>
