<svg width="14" height="14" viewBox="0 0 14 14" fill="none" xmlns="http://www.w3.org/2000/svg">
<path d="M13.552 3.2C13.09 3.41 12.592 3.548 12.076 3.614C12.604 3.296 13.012 2.792 13.204 2.186C12.706 2.486 12.154 2.696 11.572 2.816C11.098 2.3 10.432 2 9.676 2C8.266 2 7.114 3.152 7.114 4.574C7.114 4.778 7.138 4.976 7.18 5.162C5.044 5.054 3.142 4.028 1.876 2.474C1.654 2.852 1.528 3.296 1.528 3.764C1.528 4.658 1.978 5.45 2.674 5.9C2.248 5.9 1.852 5.78 1.504 5.6V5.618C1.504 6.866 2.392 7.91 3.568 8.144C3.19044 8.24733 2.79406 8.2617 2.41 8.186C2.57296 8.69749 2.89212 9.14504 3.32261 9.46576C3.7531 9.78647 4.27327 9.96422 4.81 9.974C3.90018 10.6943 2.7724 11.0836 1.612 11.078C1.408 11.078 1.204 11.066 1 11.042C2.14 11.774 3.496 12.2 4.948 12.2C9.676 12.2 12.274 8.276 12.274 4.874C12.274 4.76 12.274 4.652 12.268 4.538C12.772 4.178 13.204 3.722 13.552 3.2Z" fill="white"/>
</svg>
