<svg width="14" height="14" viewBox="0 0 14 14" fill="none" xmlns="http://www.w3.org/2000/svg">
<path d="M11.6667 4.66666L7.00008 7.58333L2.33341 4.66666V3.49999L7.00008 6.41666L11.6667 3.49999V4.66666ZM11.6667 2.33333H2.33341C1.68591 2.33333 1.16675 2.85249 1.16675 3.49999V10.5C1.16675 10.8094 1.28966 11.1062 1.50846 11.325C1.72725 11.5437 2.024 11.6667 2.33341 11.6667H11.6667C11.9762 11.6667 12.2729 11.5437 12.4917 11.325C12.7105 11.1062 12.8334 10.8094 12.8334 10.5V3.49999C12.8334 3.19058 12.7105 2.89383 12.4917 2.67504C12.2729 2.45624 11.9762 2.33333 11.6667 2.33333V2.33333Z" fill="white"/>
</svg>
